<?xml version="1.0" encoding="UTF-8" standalone="no"?>
<!-- Created with Inkscape (http://www.inkscape.org/) -->

<svg
   xmlns:dc="http://purl.org/dc/elements/1.1/"
   xmlns:cc="http://creativecommons.org/ns#"
   xmlns:rdf="http://www.w3.org/1999/02/22-rdf-syntax-ns#"
   xmlns:svg="http://www.w3.org/2000/svg"
   xmlns="http://www.w3.org/2000/svg"
   xmlns:sodipodi="http://sodipodi.sourceforge.net/DTD/sodipodi-0.dtd"
   xmlns:inkscape="http://www.inkscape.org/namespaces/inkscape"
   width="415.2196mm"
   height="205.75356mm"
   viewBox="0 0 415.2196 205.75356"
   version="1.1"
   id="svg8"
   inkscape:version="0.92.3 (2405546, 2018-03-11)"
   sodipodi:docname="dessin-1.svg">
  <defs
     id="defs2" />
  <sodipodi:namedview
     id="base"
     pagecolor="#ffffff"
     bordercolor="#666666"
     borderopacity="1.0"
     inkscape:pageopacity="0.0"
     inkscape:pageshadow="2"
     inkscape:zoom="0.24748738"
     inkscape:cx="854.4866"
     inkscape:cy="572.00044"
     inkscape:document-units="mm"
     inkscape:current-layer="g4641"
     showgrid="false"
     inkscape:window-width="1366"
     inkscape:window-height="708"
     inkscape:window-x="0"
     inkscape:window-y="0"
     inkscape:window-maximized="1"
     fit-margin-top="0"
     fit-margin-left="0"
     fit-margin-right="0"
     fit-margin-bottom="0" />
  <metadata
     id="metadata5">
    <rdf:RDF>
      <cc:Work
         rdf:about="">
        <dc:format>image/svg+xml</dc:format>
        <dc:type
           rdf:resource="http://purl.org/dc/dcmitype/StillImage" />
        <dc:title></dc:title>
      </cc:Work>
    </rdf:RDF>
  </metadata>
  <g
     inkscape:label="Calque 1"
     inkscape:groupmode="layer"
     id="layer1"
     transform="translate(321.24679,35.742892)">
    <g
       id="g29"
       transform="translate(-204.8631,-100.54167)">
      <path
         id="path33"
         style="fill:#000000;stroke-width:0.49557087"
         d="m -28.325404,129.92237 c -1.505951,0.27431 -11.039407,5.55849 -10.655741,5.90619 0.200553,0.18175 5.940076,2.27426 12.754176,4.65082 36.236684,12.63831 67.438144,23.50681 88.459404,30.81251 12.94679,4.49951 25.32368,8.81904 27.50419,9.59878 2.18051,0.77973 4.08384,1.43108 4.22977,1.44606 0.14593,0.0156 2.44293,-1.90845 5.1038,-4.27526 3.259285,-2.89909 4.627235,-4.4157 4.193965,-4.64695 -1.86591,-0.99581 -130.850043,-43.62686 -131.589564,-43.49215 z m -12.307964,6.62438 c -0.494858,-0.0118 -0.85829,0.0819 -1.256352,0.24682 -0.788974,0.32681 -1.434445,0.74624 -1.434445,0.9321 0,0.18587 2.954842,1.37192 6.566315,2.63563 3.611473,1.2637 6.677818,2.31031 6.8141,2.32492 0.136282,0.0147 0.871268,-0.38477 1.633837,-0.88758 l 1.387014,-0.91467 -6.766669,-2.34235 c -4.130598,-1.4299 -5.855125,-1.96883 -6.9438,-1.99487 z m -3.852291,1.72579 -6.093005,3.31316 c -3.35102,1.82258 -6.044533,3.35879 -5.98557,3.41286 0.169268,0.15521 51.8635866,19.40516 102.690619,38.24027 7.08666,2.62613 17.45648,6.47888 23.04405,8.56118 l 10.1592,3.7855 3.39447,-3.01698 c 1.86702,-1.6597 4.3201,-3.8349 5.45128,-4.83375 1.54355,-1.363 1.87134,-1.88779 1.31345,-2.10134 -0.40884,-0.15649 -5.76101,-2.0486 -11.8937,-4.20557 -6.13269,-2.15696 -24.08475,-8.49699 -39.89346,-14.08893 -15.80871,-5.59195 -40.7680384,-14.41943 -55.465224,-19.61667 z m -13.332017,7.45583 c -0.459484,0.0237 -0.814089,0.17022 -1.284421,0.39297 -0.861887,0.40818 -1.567049,0.87689 -1.567049,1.04147 0,0.16459 3.059184,1.4239 6.798613,2.79824 6.526386,2.39861 6.854315,2.46751 8.174016,1.71707 0.756152,-0.42998 1.37682,-0.91227 1.378306,-1.07148 0.0015,-0.15921 -2.971547,-1.40063 -6.606966,-2.75855 -4.364478,-1.63023 -5.881639,-2.17196 -6.892499,-2.11972 z m -3.969409,1.94163 -6.633098,3.5474 c -3.648249,1.9511 -6.569144,3.61135 -6.490819,3.68968 0.13933,0.13933 61.124176,24.45723 97.002197,38.67969 9.94859,3.94377 20.2069,8.03788 22.79626,9.09741 2.58936,1.05953 7.71167,3.09289 11.38265,4.51918 3.67097,1.42629 6.44518,2.66914 6.1656,2.76242 -0.27959,0.0932 -4.71584,-1.50665 -9.85916,-3.55611 -5.14331,-2.04944 -9.59914,-3.72646 -9.90173,-3.72646 -0.3026,0 -1.27552,0.61326 -2.16135,1.36282 l -1.61061,1.36282 10.05467,4.03232 c 5.52971,2.21764 10.27671,3.8995 10.54927,3.73711 0.38989,-0.23218 12.01993,-10.46578 15.02393,-13.21974 0.51956,-0.47631 -1.65112,-1.46418 -10.65477,-4.84924 -6.21899,-2.33813 -16.99383,-6.40325 -23.94421,-9.03352 -12.72357,-4.81508 -28.71152,-10.85273 -76.010123,-28.70343 z m 73.89524,7.26612 c -0.46098,0.0266 -0.7528,0.19426 -1.1373,0.4462 -0.69787,0.45726 -1.2675004,0.97294 -1.2650604,1.14601 0.002,0.17308 3.2916904,1.46769 7.3096704,2.87664 4.01798,1.40894 7.64031,2.57766 8.04916,2.59787 0.40884,0.0202 1.35511,-0.36582 2.1023,-0.85854 l 1.35798,-0.89628 -8.14304,-2.84857 c -5.42859,-1.89917 -7.25956,-2.5218 -8.27371,-2.46333 z m -88.023848,0.67076 c -0.472526,0.002 -1.474571,0.40937 -2.226198,0.905 l -1.366691,0.90112 6.817971,2.78759 c 3.749831,1.53357 6.861233,2.79945 6.913794,2.81275 0.235579,0.0593 3.647615,-2.09679 3.51836,-2.22329 -0.456936,-0.44718 -12.943034,-5.18598 -13.657236,-5.18317 z m -4.373026,2.32396 c -0.653891,-0.0178 -14.074244,7.22763 -14.077312,7.60004 -9.91e-4,0.14461 20.012933,8.82731 44.475552,19.29532 24.462618,10.46811 45.5925226,19.54492 46.9553426,20.17032 1.36282,0.6254 10.952121,4.73233 21.3095514,9.12644 10.35743,4.39412 20.50424,8.73308 22.54847,9.64234 2.04423,0.90924 3.9626,1.66634 4.26269,1.6832 0.55957,0.0313 13.08698,-10.82612 13.07649,-11.33328 -0.005,-0.24097 -7.63425,-3.41068 -19.81703,-8.23209 -1.77167,-0.70115 -3.66723,-1.47297 -4.21235,-1.71611 -2.05395,-0.91608 -8.11508,-3.38946 -12.64674,-5.16091 -2.58399,-1.01008 -6.25929,-2.48366 -8.16724,-3.27347 -1.90795,-0.78982 -8.1521404,-3.32732 -13.87598741,-5.63906 C -13.811371,184.70015 -46.913729,171.28566 -65.37707,163.78477 c -7.904356,-3.21122 -14.614867,-5.84588 -14.911649,-5.85393 z m 76.5056906,7.41517 -1.685135,0.9079 c -0.926821,0.49912 -1.558074,1.03861 -1.402505,1.19924 0.155575,0.16063 3.557704,1.56144 7.56036099,3.11281 4.00265201,1.55135 7.61224201,2.83164 8.02109201,2.84663 0.40884,0.0141 1.4044404,-0.41097 2.2126404,-0.94372 l 1.46929,-0.96791 -1.71708,-0.69883 c -0.9444704,-0.38428 -4.5838904,-1.76882 -8.0878704,-3.07699 z m -92.0009946,0.54009 -1.796444,1.1102 c -0.987673,0.61041 -1.701523,1.20415 -1.586407,1.31926 0.115111,0.11511 3.189717,1.52465 6.831519,3.13217 l 6.621487,2.92212 1.867103,-1.04922 c 1.027289,-0.57735 1.861716,-1.17568 1.854521,-1.32991 -0.0072,-0.15423 -3.112845,-1.59073 -6.902183,-3.19217 z m -4.715667,2.94052 c -0.30697,0.004 -3.96493,1.85 -8.12852,4.10104 l -7.57004,4.09233 3.1099,1.48091 c 1.71052,0.81452 15.040768,7.01014 29.622942,13.76758 14.582174,6.75744 28.185595,13.06337 30.229825,14.01343 2.04423,0.95005 5.27783,2.44172 7.185778,3.3151 5.55985,2.54508 25.037952,11.58855 49.0615196,22.77787 12.2653804,5.71278 22.5654404,10.34566 22.8891804,10.29471 0.32375,-0.0509 3.74086,-2.86261 7.59327,-6.24787 4.82392,-4.23897 6.80061,-6.26963 6.3495,-6.52179 -0.36026,-0.20139 -9.68705,-4.31173 -20.7259,-9.13419 -26.6706904,-11.65139 -35.528406,-15.53142 -37.91117,-16.60743 -1.947975,-0.87969 -4.999374,-2.19515 -20.813978,-8.97351 -4.361024,-1.86921 -8.598155,-3.72486 -9.415847,-4.12331 -0.817692,-0.39845 -9.514962,-4.20887 -19.327265,-8.46826 -9.812304,-4.2594 -20.93414,-9.10117 -24.715633,-10.75931 -3.781489,-1.65812 -7.126592,-3.01161 -7.433562,-3.0073 z m 204.50914,5.86361 c -0.11446,0.009 -0.28896,0.1437 -0.53719,0.3591 -1.34448,1.16653 -26.909975,23.88718 -53.009635,47.1102 l -23.91129,21.27568 v 3.19992 3.19894 l 1.42476,-1.15084 c 0.7834,-0.63303 12.6372,-11.29766 26.34269,-23.69933 13.7055,-12.40166 30.06938,-27.17359 36.36349,-32.82673 6.2941,-5.65314 11.811465,-10.7823 12.261505,-11.39813 0.45002,-0.61581 0.94509,-2.31927 1.09954,-3.78454 0.18017,-1.7091 0.21795,-2.3033 -0.0339,-2.28427 z m -29.847495,1.47994 -1.27281,1.26603 -1.27183,1.26506 9.30744,3.28606 c 5.11918,1.80726 9.41894,3.29921 9.55522,3.31606 0.13629,0.0164 0.91681,-0.50915 1.7345,-1.1673 l 1.48672,-1.19634 -1.23893,-0.46459 c -0.68141,-0.25556 -5.07815,-1.77864 -9.7701,-3.38479 z m -95.774886,0.70657 -1.512849,0.88564 c -0.832187,0.48699 -1.502135,1.10723 -1.488645,1.37831 0.01343,0.27108 3.446527,1.88233 7.630047,3.58031 4.183525,1.69797 7.7857506,3.09273 8.0046296,3.10022 0.218884,0.007 1.178002,-0.51755 2.131346,-1.16537 l 1.733527,-1.17795 -8.2495106,-3.30058 z m -94.756639,1.11117 c -0.0624,0.0907 0.088,1.35412 0.33392,2.80791 l 0.44718,2.64337 6.76957,3.22701 c 3.72334,1.77479 12.790769,6.07664 20.149997,9.56007 7.359228,3.48341 15.721987,7.45753 18.583909,8.83123 4.621293,2.21818 69.57979559,33.00101 88.211619,41.80218 l 7.18578,3.39447 0.2865,-3.09538 c 0.15735,-1.70247 0.15735,-3.25154 0,-3.4419 -0.29569,-0.35773 -17.6713704,-8.48247 -50.339161,-23.53962 -10.357432,-4.77392 -21.144593,-9.77124 -23.971305,-11.10485 -2.826711,-1.33361 -5.202528,-2.42462 -5.279961,-2.42462 -0.07743,0 -3.451205,-1.58284 -7.497447,-3.51739 -4.046238,-1.93456 -7.803111,-3.69269 -8.348239,-3.9065 -0.545128,-0.2138 -11.212485,-5.11622 -23.705129,-10.89481 -12.492653,-5.7786 -22.764843,-10.43183 -22.827233,-10.34117 z m 219.50499,4.02845 c -0.35065,0.10867 -2.44146,1.83694 -4.857935,4.02361 l -4.68664,4.24042 -0.34361,3.79905 c -0.18934,2.08947 -0.48237,4.48996 -0.65043,5.33416 -0.29924,1.50316 -0.23396,1.47211 3.12538,-1.51768 6.334795,-5.6379 6.421825,-5.77416 7.087055,-11.01194 0.32473,-2.55692 0.49248,-4.74678 0.37264,-4.86666 -0.007,-0.007 -0.0231,-0.008 -0.0464,-9.9e-4 z m -218.26219,2.62207 c -0.10611,0.0972 0.19594,2.59665 0.67173,5.55388 l 0.86531,5.37675 6.76086,3.21637 c 3.71879,1.76898 6.834289,3.04176 6.92251,2.82824 0.15778,-0.38185 -1.33269,-10.42718 -1.58447,-10.67897 -0.40844,-0.40844 -13.47638,-6.44255 -13.63594,-6.29627 z m 174.302545,4.16105 -1.44509,1.02889 c -0.79468,0.56586 -1.44415,1.18089 -1.44316,1.36669 9.9e-4,0.18588 4.18225,1.93862 9.29195,3.89585 5.10971,1.95724 9.51303,3.56804 9.78559,3.5774 0.55098,0.0207 3.44071,-2.38926 3.15442,-2.63078 -0.0996,-0.084 -4.49248,-1.7471 -9.76235,-3.69549 z m -100.237931,0.51784 -1.883556,1.30474 c -1.035887,0.71786 -1.797213,1.3921 -1.691909,1.49736 0.105294,0.1053 3.622395,1.7268 7.81492,3.60354 4.192525,1.87673 7.942708,3.42984 8.33469,3.45157 0.756742,0.0419 3.98605,-1.97822 3.99167,-2.49721 0.002,-0.16895 -3.723873,-1.8945 -8.280489,-3.8339 z m 143.066096,3.70226 -1.67353,1.55156 c -0.920395,0.85331 -10.170705,9.43908 -20.556505,19.07948 -10.3858,9.6404 -26.70533,24.77564 -36.26476,33.63397 l -17.38079,16.10606 -0.0358,3.4506 -0.0368,3.44964 2.35396,-2.23975 c 11.0441,-10.51197 46.1955,-44.09777 53.39389,-51.01573 8.79377,-8.45118 16.67367,-15.96679 18.189,-17.34789 1.012865,-0.92314 1.417005,-1.87482 1.673515,-3.9423 z m -215.04002,3.88326 c -0.15388,0.15389 -0.0863,1.30618 0.15002,2.56013 l 0.42975,2.27943 68.388789,34.39282 c 37.6138306,18.91609 68.556036,34.4039 68.760466,34.417 0.20441,0.0131 0.37168,-1.18398 0.37168,-2.66078 0,-1.47681 0.11655,-2.98792 0.25843,-3.35769 0.18261,-0.47588 -4.84934,-3.16077 -17.2210904,-9.18839 -36.5243816,-17.79492 -43.3910366,-21.13119 -48.2049186,-23.4254 -2.72564,-1.299 -10.530882,-5.0834 -17.344982,-8.40922 -39.060507,-19.0645 -55.339434,-26.8566 -55.588144,-26.6079 z m 187.760385,10.5425 -3.3964,3.02763 c -1.86804,1.665 -4.54975,4.10602 -5.95944,5.42417 l -2.56302,2.39655 -0.30974,5.45128 -0.30876,5.45128 2.12844,-2.00454 c 10.2063,-9.60807 9.42214,-8.37591 10.06725,-15.80891 z m -135.531864,2.64917 0.327156,3.85132 c 0.180055,2.11862 0.452069,4.75281 0.604943,5.85297 l 0.277792,1.9997 7.765557,3.77583 c 4.270671,2.07685 8.03758,3.79759 8.371471,3.82325 0.390852,0.03 0.528967,-0.43853 0.388131,-1.31636 -0.12026,-0.74957 -0.355384,-3.29778 -0.52364,-5.66228 -0.180764,-2.54033 -0.543091,-4.39594 -0.884668,-4.53661 -0.317939,-0.13092 -4.121743,-1.9367 -8.452775,-4.01296 z m 85.128824,7.46938 c -0.53297,0.0161 -3.92511,2.95101 -3.64032,3.14958 0.0942,0.0657 4.51996,2.03789 9.83495,4.38271 5.315,2.34482 9.94614,4.28205 10.29084,4.30527 0.34471,0.0232 1.4388,-0.70192 2.4314,-1.61157 l 1.80419,-1.65416 -10.11275,-4.29269 c -5.56205,-2.36138 -10.33575,-4.28663 -10.60831,-4.27914 z m 16.26382,20.58942 -7.26417,6.61471 -7.26515,6.61568 v 5.71068 5.70971 l 3.3451,-3.15055 c 1.83981,-1.73279 4.95352,-4.68251 6.9196,-6.5547 l 3.5745,-3.40318 0.34555,-5.77166 z m -35.3994404,3.2667 c -0.24178,-0.0909 -0.43943,2.48996 -0.43943,5.73488 v 5.89942 l 9.7875204,4.75439 c 5.38314,2.61457 10.06629,4.77259 10.40699,4.796 0.46342,0.0318 0.61687,-1.42437 0.60882,-5.78037 l -0.0116,-5.82296 -9.95594,-4.70792 c -5.47607,-2.58934 -10.1545604,-4.78259 -10.3963404,-4.87344 z"
         inkscape:connector-curvature="0" />
      <ellipse
         style="fill:none;stroke:#ffffff;stroke-width:0.79500002;stroke-miterlimit:4;stroke-dasharray:none;stroke-opacity:1"
         id="path25"
         cx="222.67769"
         cy="111.06377"
         rx="6.5496387"
         ry="7.6107187" />
      <g
         id="g4603"
         transform="matrix(0.75080161,0,0,0.75080161,82.95561,76.506744)">
        <path
           style="fill:#a1a1a1;stroke-width:0.26458332"
           d="m 244.57612,245.17002 c 0.48325,-0.32742 0.93391,-0.77391 1.00147,-0.99219 0.0749,-0.24204 -0.14598,-0.14982 -0.5662,0.23638 l -0.68905,0.63325 -2.32381,-0.45358 c -10.6526,-2.07926 -42.4558,-9.08908 -42.80053,-9.43377 -0.29906,-0.29902 -0.50541,-15.27861 -0.78057,-56.66509 L 198.24548,152.632 h 1.33388 1.3339 v 10.02177 c 0,8.10712 0.0685,10.07859 0.35838,10.3192 0.19712,0.16359 8.28836,1.48431 17.98054,2.93494 l 17.62215,2.63749 1.40019,-0.89991 c 0.77011,-0.49495 1.60513,-1.05695 1.85561,-1.24889 0.40598,-0.31109 0.48649,-1.38206 0.74169,-9.86602 0.15745,-5.23437 0.32306,-9.55381 0.368,-9.59876 0.21231,-0.21231 6.44064,0.58026 6.93561,0.88258 0.74744,0.4565 1.15441,-0.003 3.1373,-3.53909 0.83951,-1.49727 1.57797,-2.67073 1.64101,-2.60768 0.063,0.063 -0.0182,20.14301 -0.18059,44.62214 -0.16237,24.47914 -0.22396,44.83198 -0.13686,45.22854 l 0.15836,0.72101 -2.40426,-0.39444 -2.40426,-0.39443 -0.9106,0.88259 c -1.1453,1.11007 -0.95072,1.43193 0.20992,0.34723 0.81519,-0.76186 0.91259,-0.78673 2.04655,-0.5227 1.03659,0.24136 1.09591,0.28962 0.45854,0.373 -0.40265,0.0527 -0.66351,0.20674 -0.5797,0.34235 0.0838,0.13562 -0.0332,0.24658 -0.26009,0.24658 -0.22687,0 -0.4125,-0.11906 -0.4125,-0.26458 0,-0.50436 -0.5404,-0.26043 -1.31889,0.59531 -0.43024,0.47294 -0.78575,1.06825 -0.79002,1.32291 -0.005,0.27928 -0.21155,0.46303 -0.5213,0.46303 -0.28246,0 -0.58714,0.11906 -0.67708,0.26458 -0.0899,0.14552 -0.47175,0.26458 -0.84849,0.26458 -0.67953,0 -0.67799,-0.005 0.19365,-0.59531 z m 2.24237,-44.65324 c 0.20475,-42.45133 0.2064,-42.36486 -0.79573,-41.53316 -0.487,0.40417 -0.87447,82.10285 -0.39214,82.68402 0.98295,1.18439 0.98382,1.15438 1.18787,-41.15086 z m 12.83226,44.71939 c 0,-0.14553 0.11907,-0.26459 0.26459,-0.26459 0.14552,0 0.26458,0.11906 0.26458,0.26459 0,0.14552 -0.11906,0.26458 -0.26458,0.26458 -0.14552,0 -0.26459,-0.11906 -0.26459,-0.26458 z m -18.57044,-0.18074 c 0.191,-0.0764 0.4192,-0.067 0.50712,0.0209 0.0879,0.0879 -0.0684,0.15045 -0.34726,0.13897 -0.30823,-0.0127 -0.37092,-0.0754 -0.15986,-0.15985 z m -2.33164,-0.34843 c -0.31415,-0.20302 -0.25901,-0.25648 0.26458,-0.25648 0.36381,0 0.84006,0.11541 1.05834,0.25648 0.31415,0.20302 0.25901,0.25648 -0.26459,0.25648 -0.3638,0 -0.84005,-0.11542 -1.05833,-0.25648 z m 19.18229,-0.78744 c -0.3911,-0.17273 -0.14883,-0.23855 0.92854,-0.2523 1.17308,-0.015 1.52417,-0.125 1.79804,-0.56355 0.31224,-0.49997 0.29709,-0.5218 -0.18354,-0.26458 -0.66762,0.3573 -2.40805,0.35771 -4.41267,10e-4 -2.49687,-0.44426 -2.5463,-0.47049 -2.38409,-1.26493 0.0791,-0.38758 0.27215,-20.74583 0.42892,-45.24055 0.29562,-46.19296 0.30568,-45.57011 -0.72925,-45.17297 -0.20252,0.0777 -0.31821,0.0534 -0.25708,-0.0541 6.98717,-12.285 32.01713,-55.222 32.24679,-55.316961 0.11732,-0.04851 0.2133,-0.309371 0.2133,-0.579697 0,-0.270327 0.13713,-0.576257 0.30474,-0.679844 0.22493,-0.139013 0.26105,0.324655 0.1379,1.770322 -0.0918,1.077265 -0.24783,4.69378 -0.34681,8.03669 -0.099,3.34292 -0.26646,5.84323 -0.37217,5.55625 -0.17658,-0.47938 -0.20406,-0.46803 -0.33823,0.13968 -0.22882,1.03637 -0.80385,19.30727 -0.61364,19.49748 0.0934,0.0934 0.17674,-1.12988 0.18512,-2.71848 0.008,-1.58861 0.11429,-3.36462 0.23533,-3.94671 0.23344,-1.12261 0.0892,5.90752 -0.24434,11.90625 l -0.19124,3.43959 -0.0804,-4.10104 c -0.0733,-3.73689 -0.10988,-3.3375 -0.41206,4.49791 -0.18239,4.72943 -0.31904,10.2063 -0.30366,12.17084 0.0154,1.96453 0.0691,2.70867 0.11928,1.65364 0.0502,-1.05502 0.20288,-1.91823 0.33924,-1.91823 0.13636,0 0.19328,0.50602 0.12649,1.12448 -0.14784,1.36893 -0.38782,9.36618 -0.39348,13.11249 -0.002,1.50018 -0.10594,2.66467 -0.23038,2.58776 -0.12444,-0.0769 -0.19104,-3.03073 -0.14799,-6.56405 0.043,-3.53332 -0.19918,2.32687 -0.53827,13.02266 -0.3391,10.69578 -0.83004,24.12023 -1.09098,29.83212 l -0.47445,10.38526 -0.81155,0.30021 c -0.57841,0.21398 -0.98658,0.66636 -1.42085,1.57475 -0.33512,0.70099 -2.04294,3.453 -3.79516,6.11557 -1.75222,2.66258 -3.00575,4.66245 -2.78562,4.44417 0.22013,-0.21828 1.88765,-2.65906 3.70559,-5.42396 3.30628,-5.02852 4.12522,-6.09989 5.07257,-6.63613 0.35736,-0.20229 0.55611,-0.70627 0.67823,-1.71979 l 0.17273,-1.43366 0.0372,1.51104 c 0.039,1.58325 -0.41932,2.36335 -1.61082,2.74151 -0.41944,0.13313 -0.44298,0.22337 -0.15179,0.58174 0.29796,0.3667 0.27686,0.3987 -0.15578,0.23627 -0.4445,-0.16688 -0.45929,-0.1373 -0.1323,0.26459 0.3223,0.39611 0.31321,0.4319 -0.073,0.28734 -0.52318,-0.19584 -0.90538,0.54517 -0.49359,0.95696 0.45138,0.45138 0.31023,0.73499 -0.32206,0.64707 -0.41143,-0.0572 -0.67598,0.1011 -0.85649,0.51254 -0.14364,0.32742 -0.352,0.59531 -0.46302,0.59531 -0.11101,0 -0.20184,0.19009 -0.20184,0.42242 0,0.23233 -0.47179,0.95841 -1.04843,1.6135 -0.57663,0.65509 -1.37195,1.74312 -1.76736,2.41785 -0.39542,0.67472 -1.20354,1.84105 -1.79584,2.59183 -1.87916,2.38197 -5.70712,8.00871 -5.70712,8.38892 0,0.12762 -0.30655,0.47316 -0.68122,0.76788 -0.37467,0.29471 -0.7965,0.7881 -0.9374,1.09641 -0.46495,1.01739 -0.97497,1.81997 -1.27394,2.00474 -0.16202,0.10014 -1.09697,1.30444 -2.07765,2.67624 -1.70933,2.39104 -1.82669,2.4964 -2.83819,2.54803 -0.58033,0.0296 -1.29327,-0.0513 -1.58431,-0.17984 z m 6.48229,-6.09173 c 0.31086,-0.43656 0.50567,-0.79375 0.43291,-0.79375 -0.0728,0 -0.38663,0.35719 -0.69749,0.79375 -0.31086,0.43656 -0.50567,0.79375 -0.43291,0.79375 0.0728,0 0.38664,-0.35719 0.69749,-0.79375 z m 1.09209,-1.52135 c 0.3291,-0.41965 0.31975,-0.42901 -0.0999,-0.0999 -0.25466,0.19972 -0.46302,0.40808 -0.46302,0.46302 0,0.21777 0.21727,0.0776 0.56292,-0.36312 z m 2.24104,-3.175 c 0.69459,-0.98227 1.56805,-2.20266 1.94101,-2.71198 0.37295,-0.50932 0.49318,-0.78192 0.26716,-0.60577 -0.44882,0.34979 -3.79805,5.10369 -3.59567,5.10369 0.0685,0 0.6929,-0.80368 1.3875,-1.78594 z m -19.47271,10.51719 c 0,-0.14553 0.18562,-0.26459 0.41249,-0.26459 0.22687,0 0.33891,0.11906 0.24897,0.26459 -0.0899,0.14552 -0.27556,0.26458 -0.41249,0.26458 -0.13693,0 -0.24897,-0.11906 -0.24897,-0.26458 z m 7.88789,-0.18074 c 0.191,-0.0764 0.4192,-0.067 0.50712,0.0209 0.0879,0.0879 -0.0684,0.15045 -0.34727,0.13897 -0.30822,-0.0127 -0.37091,-0.0754 -0.15985,-0.15985 z m -24.95351,-0.34843 c -0.48235,-0.20727 -0.47065,-0.22739 0.13229,-0.22739 0.3638,0 0.89958,0.10232 1.19062,0.22739 0.48235,0.20727 0.47065,0.22739 -0.13229,0.22739 -0.3638,0 -0.89958,-0.10233 -1.19062,-0.22739 z m 19.31458,0 c -0.0899,-0.14552 -0.0445,-0.26458 0.10106,-0.26458 0.14552,0 0.33817,0.11906 0.42811,0.26458 0.0899,0.14552 0.0445,0.26458 -0.10107,0.26458 -0.14552,0 -0.33816,-0.11906 -0.4281,-0.26458 z m 2.64583,0 c -0.45113,-0.19386 -0.41212,-0.22739 0.26459,-0.22739 0.43656,0 1.03187,0.10232 1.32291,0.22739 0.45114,0.19386 0.41212,0.22739 -0.26458,0.22739 -0.43656,0 -1.03188,-0.10233 -1.32292,-0.22739 z m -25.79687,-0.26458 c 0,-0.14553 0.12609,-0.26459 0.2802,-0.26459 0.15411,0 0.20661,0.11906 0.11667,0.26459 -0.0899,0.14552 -0.21602,0.26458 -0.2802,0.26458 -0.0642,0 -0.11667,-0.11906 -0.11667,-0.26458 z m 2.38125,-0.008 c 0,-0.14095 0.17859,-0.25628 0.39687,-0.25628 0.21828,0 0.39688,0.0468 0.39688,0.10399 0,0.0572 -0.1786,0.17251 -0.39688,0.25628 -0.21828,0.0838 -0.39687,0.037 -0.39687,-0.10399 z m 21.62969,-0.16693 c 0.1819,-0.0734 0.47955,-0.0734 0.66145,0 0.1819,0.0734 0.0331,0.13345 -0.33073,0.13345 -0.3638,0 -0.51263,-0.06 -0.33072,-0.13345 z m -25.20157,-0.61851 c -0.48462,-0.20826 -0.47349,-0.22862 0.1323,-0.24194 0.3638,-0.008 0.84005,0.10087 1.05833,0.24194 0.32757,0.21169 0.30446,0.25393 -0.13229,0.24193 -0.29104,-0.008 -0.76729,-0.11687 -1.05834,-0.24193 z m -3.88606,-0.97449 c 0.19099,-0.0764 0.41919,-0.067 0.50711,0.0209 0.0879,0.0879 -0.0684,0.15045 -0.34726,0.13897 -0.30823,-0.0127 -0.37092,-0.0754 -0.15985,-0.15985 z m -4.71289,-0.8776 c -0.32757,-0.21169 -0.30447,-0.25394 0.13229,-0.24193 0.29104,0.008 0.76729,0.11687 1.05833,0.24193 0.48463,0.20825 0.47349,0.22862 -0.13229,0.24194 -0.3638,0.008 -0.84005,-0.10087 -1.05833,-0.24194 z m -5.02709,-1.05833 c 0,-0.14552 0.1786,-0.26458 0.39688,-0.26458 0.21828,0 0.39687,0.11906 0.39687,0.26458 0,0.14552 -0.17859,0.26458 -0.39687,0.26458 -0.21828,0 -0.39688,-0.11906 -0.39688,-0.26458 z m -1.37252,-0.44532 c 0.19099,-0.0764 0.41919,-0.067 0.50712,0.0209 0.0879,0.0879 -0.0684,0.15045 -0.34727,0.13897 -0.30823,-0.0127 -0.37092,-0.0754 -0.15985,-0.15985 z m -2.38125,-0.52917 c 0.19099,-0.0764 0.41919,-0.067 0.50712,0.0209 0.0879,0.0879 -0.0684,0.15046 -0.34727,0.13897 -0.30823,-0.0127 -0.37092,-0.0754 -0.15985,-0.15985 z m -4.5806,-0.87759 c -0.48463,-0.20826 -0.4735,-0.22862 0.13229,-0.24194 0.3638,-0.008 0.84005,0.10087 1.05833,0.24194 0.32757,0.21169 0.30447,0.25393 -0.13229,0.24193 -0.29104,-0.008 -0.76729,-0.11687 -1.05833,-0.24193 z m -4.08111,-0.75987 c -0.78939,-0.24388 -1.47993,-0.5774 -1.53451,-0.74116 -0.0682,-0.20446 0.21576,-0.18539 0.9061,0.0609 0.55294,0.19723 1.19095,0.36383 1.4178,0.37022 0.22685,0.006 0.64357,0.18642 0.92604,0.40007 0.68196,0.51581 0.15622,0.48823 -1.71543,-0.09 z m 2.57629,0.31454 c 0.19099,-0.0764 0.4192,-0.067 0.50712,0.0209 0.0879,0.0879 -0.0683,0.15045 -0.34727,0.13896 -0.30822,-0.0127 -0.37092,-0.0754 -0.15985,-0.15985 z m -4.54023,-2.86197 c -0.11254,-0.43656 -0.3175,-1.00211 -0.45547,-1.25677 -0.26897,-0.49647 -0.0653,-0.59173 0.49956,-0.2336 0.22169,0.14057 0.31465,0.59762 0.25478,1.25272 l -0.0942,1.0314 z m -3.08308,-2.05212 c -0.57269,-0.176 -0.76121,-0.32346 -0.49406,-0.38643 0.2376,-0.056 0.83291,0.0731 1.32292,0.28688 1.0359,0.45197 0.51959,0.51398 -0.82886,0.0995 z m -0.82913,-1.04834 -2.28434,-0.54215 -0.132,-3.33807 -0.132,-3.33807 0.90525,-0.80233 0.90525,-0.80233 -0.28061,-8.85496 c -0.42581,-13.43665 -1.95145,-50.50691 -2.36257,-57.406 -0.12574,-2.11005 -0.18741,-3.88105 -0.13706,-3.93554 0.0883,-0.0956 5.9936,0.46664 6.1085,0.58155 0.0496,0.0496 0.61996,70.59455 0.61996,76.68268 0,2.71675 0.25458,2.57757 -3.21038,1.75522 z m -2.74274,0.0578 c -0.2082,-0.33687 0.40478,-0.33687 0.92604,0 0.32265,0.20851 0.28846,0.25723 -0.18282,0.26053 -0.31884,0.002 -0.65329,-0.11501 -0.74322,-0.26053 z m -0.51787,-2.62756 c -0.0837,-0.13546 -0.0312,-0.32108 0.11668,-0.41249 0.14789,-0.0914 0.2689,0.0194 0.2689,0.2463 0,0.46475 -0.15877,0.53318 -0.38558,0.16619 z m 0.0578,-1.73807 c -0.10754,-0.58208 -0.19684,-1.61525 -0.19844,-2.29593 -0.002,-1.05951 0.11011,-1.32605 0.78255,-1.85231 0.75306,-0.58936 0.79519,-0.73474 1.02135,-3.5249 l 0.23589,-2.91019 0.037,2.92706 c 0.0369,2.91879 0.0348,2.92918 -0.74671,3.67789 -0.72506,0.69464 -0.78939,0.91116 -0.85989,2.89377 -0.0651,1.83117 -0.10465,1.98897 -0.27173,1.08461 z m 1.4786,-17.06562 c 0,-1.23693 0.0456,-1.74295 0.10128,-1.12448 0.0557,0.61846 0.0557,1.63049 0,2.24895 -0.0557,0.61847 -0.10128,0.11245 -0.10128,-1.12447 z m 89.69668,-3.43959 c 0,-1.38245 0.0446,-1.94799 0.0991,-1.25677 0.0545,0.69123 0.0545,1.82232 0,2.51354 -0.0545,0.69123 -0.0991,0.12568 -0.0991,-1.25677 z M 192.1159,203.73 c -0.30973,-1.39379 -0.25181,-4.6902 0.0766,-4.36174 0.1631,0.1631 0.24387,1.2886 0.19843,2.76489 -0.0572,1.85826 -0.12697,2.26331 -0.27507,1.59685 z m 90.34064,-3.34036 c 0.005,-0.43656 0.0647,-0.58313 0.13177,-0.32569 0.0671,0.25743 0.0627,0.61462 -0.01,0.79375 -0.0725,0.17913 -0.12736,-0.0315 -0.12197,-0.46806 z m 0.0946,-5.55625 c 0.0642,-2.32833 0.11707,-5.45372 0.11755,-6.94531 5.3e-4,-1.49159 0.0947,-2.71198 0.2093,-2.71198 0.25009,0 0.1062,7.5283 -0.21491,11.24479 -0.20084,2.32442 -0.21444,2.13157 -0.11194,-1.5875 z m -90.89823,2.36563 c 0,-0.22686 0.11906,-0.3389 0.26458,-0.24896 0.14552,0.0899 0.26459,0.27556 0.26459,0.41249 0,0.13693 -0.11907,0.24897 -0.26459,0.24897 -0.14552,0 -0.26458,-0.18563 -0.26458,-0.4125 z m 0.34387,-2.49792 c 0,-0.80037 0.0496,-1.12779 0.11022,-0.72761 0.0606,0.40019 0.0606,1.05503 0,1.45521 -0.0606,0.40019 -0.11022,0.0728 -0.11022,-0.7276 z m -0.26458,-6.08542 c 0,-0.80036 0.0496,-1.12778 0.11022,-0.7276 0.0606,0.40018 0.0606,1.05502 0,1.45521 -0.0606,0.40018 -0.11022,0.0728 -0.11022,-0.72761 z m -0.40166,-4.96094 c -0.0489,-0.10914 -0.0151,-0.79375 0.0751,-1.52135 l 0.16413,-1.32292 0.0416,1.52136 c 0.0382,1.39758 -0.0535,1.8296 -0.2808,1.32291 z m 91.79652,-7.8052 c -0.0824,-1.20055 -0.0573,-3.01625 0.0557,-4.0349 0.17608,-1.58744 0.2108,-1.27553 0.243,2.18281 0.0207,2.2192 -0.004,4.0349 -0.0557,4.0349 -0.0513,0 -0.16065,-0.98227 -0.24301,-2.18281 z m -64.08978,-0.77687 c -9.45885,-1.41869 -17.22768,-2.58328 -17.26406,-2.588 -0.0364,-0.005 -0.0661,-4.41388 -0.0661,-9.79815 0,-6.97812 0.0841,-9.78959 0.29275,-9.78959 1.44354,0 34.10864,3.35696 34.27399,3.5223 0.0549,0.0549 0.0686,4.8547 0.0306,10.66631 l -0.0692,10.56656 z m 3.10338,-5.08178 c 0.91252,-0.49374 1.64244,-0.99975 1.62206,-1.12448 -0.0204,-0.12472 0.21774,-0.58396 0.52917,-1.02052 0.78393,-1.09892 0.82086,-5.0434 0.0616,-6.5727 -0.71823,-1.44655 -2.95839,-3.81114 -4.23221,-4.46729 -1.40473,-0.72359 -4.77484,-0.79898 -5.79634,-0.12967 -1.56437,1.02501 -2.5066,6.01125 -1.64038,8.68076 1.13305,3.4918 2.40833,4.83126 5.02986,5.283 2.07774,0.35804 2.74606,0.26003 4.42629,-0.6491 z m -4.69437,-0.73132 c -1.20486,-0.60849 -1.81373,-1.1344 -2.50876,-2.16692 -0.84123,-1.24972 -0.92584,-1.55542 -1.01454,-3.66568 -0.10118,-2.40706 0.46984,-4.87397 1.45314,-6.27782 0.39841,-0.56881 0.56333,-0.60501 2.10191,-0.46134 2.09925,0.19604 3.44824,0.87836 4.82194,2.43896 2.23249,2.53624 2.87567,5.3649 1.83216,8.05766 -0.40089,1.03449 -0.67984,1.30339 -2.12713,2.05052 -0.91615,0.47295 -1.95868,0.85275 -2.31673,0.84402 -0.35805,-0.009 -1.36694,-0.37747 -2.24199,-0.8194 z m 19.71495,-2.50032 c 0,-9.44709 0.0412,-10.46353 0.41852,-10.31875 0.23018,0.0883 0.95523,0.1606 1.61123,0.1606 h 1.19271 l -0.19885,5.62239 c -0.10937,3.09232 -0.21256,6.33678 -0.22931,7.2099 -0.0168,0.87313 -0.057,2.68381 -0.0895,4.02374 l -0.059,2.43624 -1.14772,0.67262 c -0.63125,0.36993 -1.22656,0.67261 -1.32292,0.67261 -0.0964,0 -0.17519,-4.71571 -0.17519,-10.47935 z m -45.95821,8.62727 c 0,-0.80037 0.0496,-1.12779 0.11022,-0.72761 0.0606,0.40018 0.0606,1.05503 0,1.45521 -0.0606,0.40018 -0.11022,0.0728 -0.11022,-0.7276 z m -0.51558,-6.35 c -0.1672,-1.23693 -0.26615,-2.28893 -0.21987,-2.33777 0.31285,-0.33025 0.66712,1.32095 0.60199,2.80577 l -0.0781,1.78095 z m -0.15902,-4.38576 c -0.10914,-0.1102 -0.19844,-0.97823 -0.19844,-1.92897 0,-1.20892 0.0837,-1.64496 0.27823,-1.45038 0.15413,0.15413 0.24264,1.01451 0.19844,1.92897 -0.0439,0.9079 -0.16909,1.56057 -0.27823,1.45038 z m -0.11375,-7.78508 c 0,-0.94588 0.048,-1.33284 0.10671,-0.85989 0.0587,0.47294 0.0587,1.24685 0,1.71979 -0.0587,0.47294 -0.10671,0.086 -0.10671,-0.8599 z m 26.37365,-3.85883 c -16.66214,-1.65008 -30.59247,-2.94223 -30.95629,-2.87144 -0.60655,0.118 -0.71238,-0.0132 -1.27417,-1.57964 -0.33697,-0.93959 -0.75367,-1.81918 -0.926,-1.95465 -0.17234,-0.13547 -1.23496,-0.32054 -2.36138,-0.41125 l -2.04805,-0.16494 -1.38324,1.31933 c -0.76078,0.72564 -1.50604,1.31662 -1.65612,1.3133 -0.15008,-0.003 -1.10423,-0.21875 -2.12032,-0.47871 -2.10601,-0.53882 -2.00701,-0.34407 -2.34864,-4.62002 l -0.16475,-2.06206 0.8575,0.1336 c 4.67137,0.72783 10.54601,1.52718 13.68979,1.86272 7.49005,0.79945 60.72835,7.59008 61.11875,7.7958 0.268,0.14122 0.48683,0.95175 0.67389,2.49609 0.26926,2.22286 0.26185,2.28604 -0.26458,2.25448 -0.29788,-0.0179 -14.17426,-1.38253 -30.83639,-3.03261 z m 32.54374,1.82833 c 0,-0.14663 -0.13092,-1.23949 -0.29095,-2.42857 l -0.29096,-2.16197 5.61631,-9.98479 c 3.08897,-5.49164 5.76083,-10.16339 5.93746,-10.38167 0.17663,-0.21828 0.95042,-1.5875 1.71953,-3.04271 2.07732,-3.93042 5.25577,-9.59976 6.26488,-11.17457 0.48812,-0.76175 0.88748,-1.44545 0.88748,-1.51934 0,-0.0739 1.14673,-2.18908 2.54828,-4.70042 1.40156,-2.51135 2.96029,-5.31022 3.46387,-6.21973 0.50357,-0.9095 1.00561,-1.65364 1.11566,-1.65364 0.11004,0 0.77477,-1.16086 1.47717,-2.579692 1.61225,-3.256676 6.45387,-11.927322 6.76881,-12.121965 0.13015,-0.08043 0.23663,0.260884 0.23663,0.758484 0,0.497601 0.0877,1.486893 0.19479,2.198428 l 0.1948,1.293699 0.16234,-1.190625 c 0.1225,-0.898437 0.17209,-0.590016 0.20208,1.25677 0.0232,1.428716 0.14987,2.447396 0.30432,2.447396 0.14552,0 0.26459,0.128985 0.26459,0.286632 0,0.517396 -0.64232,0.08544 -0.84883,-0.570831 -0.12274,-0.390051 -0.15458,-0.08123 -0.0812,0.787221 0.10478,1.239544 0.074,1.365042 -0.23219,0.946317 -0.33534,-0.45861 -0.37291,-0.450688 -0.75136,0.158437 -0.2191,0.352651 -8.10974,13.916649 -17.53477,30.142229 -9.42502,16.22557 -17.17968,29.55065 -17.23258,29.61128 -0.0529,0.0606 -0.0962,-0.01 -0.0962,-0.15637 z m -60.3746,-3.17732 c 0.19099,-0.0764 0.4192,-0.067 0.50711,0.0209 0.0879,0.0879 -0.0683,0.15046 -0.34726,0.13897 -0.30823,-0.0127 -0.37092,-0.0754 -0.15985,-0.15985 z m -4.5693,-0.85931 c -0.26635,-0.43096 0.23993,-0.51456 0.76979,-0.12711 0.49836,0.36441 0.49708,0.37341 -0.0534,0.37341 -0.31027,0 -0.63262,-0.11084 -0.71634,-0.2463 z m -8.21339,-0.54745 c -0.0899,-0.14552 -0.0542,-0.26458 0.0794,-0.26458 0.13362,0 0.77797,-0.47095 1.43188,-1.04654 1.10812,-0.97541 1.18049,-1.00238 1.06474,-0.39688 -0.0683,0.35732 -0.24036,0.64967 -0.38234,0.64967 -0.40446,0 -1.53365,0.96873 -1.34689,1.1555 0.0921,0.0921 -0.024,0.16741 -0.25794,0.16741 -0.23394,0 -0.49894,-0.11906 -0.58888,-0.26458 z m 61.11875,-1.7372 c -5.38427,-0.63371 -22.39538,-2.76207 -37.80248,-4.72968 -15.40709,-1.96761 -28.14678,-3.49729 -28.31041,-3.3993 -0.21767,0.13036 -0.21975,0.0758 -0.008,-0.20334 0.15938,-0.20984 1.40363,-1.8698 2.76499,-3.68881 1.36136,-1.81902 3.32442,-4.37886 4.36235,-5.68855 1.03792,-1.30968 4.78932,-6.19125 8.33643,-10.84791 3.54711,-4.65667 8.57004,-11.20511 11.16206,-14.55209 2.59202,-3.34698 7.81451,-10.317274 11.60552,-15.489549 l 6.89276,-9.404135 2.16389,0.210397 c 13.34954,1.297992 23.79085,2.115055 39.73472,3.109361 8.10081,0.50519 23.85078,1.32406 25.79687,1.341227 0.76439,0.0067 0.84425,0.05579 0.45746,0.280968 -0.25773,0.15004 -0.38816,0.40294 -0.28985,0.562001 0.10021,0.162146 0.0577,0.214402 -0.0967,0.118944 -0.15152,-0.09364 -0.42685,0.01212 -0.61184,0.235027 -0.185,0.222907 -8.28069,14.538859 -17.99042,31.813229 -9.70973,17.27437 -17.81694,31.42516 -18.01602,31.44619 -0.19907,0.021 -4.76727,-0.48026 -10.15154,-1.11398 z m 46.75054,0.0174 c 0.005,-0.43657 0.0647,-0.58313 0.13177,-0.3257 0.0671,0.25743 0.0627,0.61462 -0.01,0.79375 -0.0725,0.17913 -0.12736,-0.0315 -0.12197,-0.46805 z m 0.0374,-2.77813 c 0,-1.0914 0.0467,-1.53789 0.10378,-0.99219 0.0571,0.54571 0.0571,1.43868 0,1.98438 -0.0571,0.5457 -0.10378,0.0992 -0.10378,-0.99219 z m -113.74062,-5.42396 c 0.10255,-0.8231 0.45681,-1.4072 1.59384,-2.62793 0.8041,-0.86328 1.46199,-1.65723 1.46199,-1.76433 0,-0.10711 0.53578,-0.82242 1.19062,-1.58959 0.65485,-0.76717 1.19063,-1.50771 1.19063,-1.64566 0,-0.13795 0.44648,-0.75256 0.99219,-1.3658 0.5457,-0.61325 1.64703,-1.98224 2.44739,-3.04221 0.80037,-1.05997 1.85779,-2.417 2.34984,-3.01564 0.49204,-0.59863 1.37864,-1.80279 1.97021,-2.67592 0.59158,-0.87312 1.40884,-1.94469 1.81613,-2.38125 0.4073,-0.43656 0.74109,-0.8757 0.74177,-0.97586 6.6e-4,-0.10016 0.36344,-0.57641 0.80615,-1.05833 0.4427,-0.48193 1.42314,-1.79896 2.17874,-2.92675 0.7556,-1.12778 1.45992,-2.05052 1.56517,-2.05052 0.10524,0 0.50534,-0.53578 0.88911,-1.19062 0.38376,-0.65485 0.80381,-1.19063 0.93344,-1.19063 0.12963,0 0.56469,-0.50601 0.9668,-1.12448 0.40211,-0.61846 0.90982,-1.26952 1.12823,-1.44679 0.27647,-0.22439 0.29664,-0.32487 0.0664,-0.33073 -0.5574,-0.0142 -0.36697,-0.47083 0.26459,-0.63445 0.32742,-0.0848 0.87467,-0.56834 1.21612,-1.07446 0.34145,-0.50612 0.958,-1.27305 1.37011,-1.70429 0.48621,-0.50877 0.70181,-0.96567 0.61404,-1.30129 -0.0988,-0.37768 0.0313,-0.56359 0.48197,-0.6891 0.57474,-0.16004 3.55644,-3.81194 4.42967,-5.425323 0.20506,-0.378882 0.56225,-0.846534 0.79375,-1.039227 0.23149,-0.192692 0.27207,-0.274962 0.0902,-0.182822 -0.19928,0.100941 -0.33073,-0.0077 -0.33073,-0.27327 0,-0.282858 0.14201,-0.386302 0.39635,-0.288704 0.24814,0.09522 0.56831,-0.11679 0.85626,-0.567005 0.25294,-0.395505 0.58949,-0.838161 0.74786,-0.983682 0.41843,-0.384453 3.02661,-4.003424 3.02661,-4.19955 0,-0.09134 0.20836,-0.395666 0.46302,-0.676277 0.82721,-0.911505 1.12448,-1.315627 1.1248,-1.529152 1.8e-4,-0.115282 0.29784,-0.555545 0.66146,-0.978362 0.36363,-0.422816 0.66114,-0.928832 0.66114,-1.124479 0,-0.195647 0.15948,-0.355722 0.3544,-0.355722 0.39549,0 0.96852,-1.085333 0.96852,-1.834386 0,-0.295989 0.36271,-0.658689 0.92604,-0.926005 0.50932,-0.24169 0.92604,-0.603802 0.92604,-0.804694 0,-0.703147 1.33155,-1.464437 2.48308,-1.419655 1.07196,0.04169 1.07447,0.04405 0.16275,0.152977 -1.07798,0.128786 -1.60578,0.55026 -2.73737,2.18593 -0.61514,0.889152 -0.84689,1.072565 -0.91527,0.724365 -0.0504,-0.256443 -0.20741,-0.394671 -0.34898,-0.307174 -0.16182,0.100008 -0.14685,0.292302 0.0403,0.517811 0.23326,0.281062 -0.34794,1.235423 -2.68456,4.408215 -5.34477,7.257403 -10.74575,14.400301 -21.26747,28.126571 -15.09098,19.68718 -18.62516,24.36512 -18.92596,25.05086 -0.22348,0.50947 -0.24681,0.43393 -0.13736,-0.44461 z m 113.96782,-0.52916 c 0.005,-0.43657 0.0647,-0.58313 0.13178,-0.3257 0.0671,0.25743 0.0627,0.61462 -0.01,0.79375 -0.0725,0.17913 -0.12736,-0.0315 -0.12197,-0.46805 z m 0.76306,-21.98247 c 0.0127,-0.30822 0.0754,-0.37092 0.15985,-0.15985 0.0764,0.19099 0.067,0.4192 -0.0209,0.50712 -0.0879,0.0879 -0.15046,-0.0684 -0.13897,-0.34727 z m 0.0659,-2.3592 c 10e-4,-1.01865 0.049,-1.40294 0.10628,-0.854 0.0573,0.54895 0.0563,1.38239 -0.002,1.85209 -0.0584,0.4697 -0.10531,0.0206 -0.10414,-0.99809 z m 0.22346,-29.558649 c -0.29767,-1.172713 -0.18716,-1.65146 0.22922,-0.993063 0.23544,0.372273 0.36237,2.109004 0.15415,2.109004 -0.0551,0 -0.22758,-0.502174 -0.38337,-1.115941 z m -4.60502,-1.457061 c 0.47555,-0.05889 1.18993,-0.05767 1.5875,0.0027 0.39758,0.06037 0.009,0.108551 -0.86463,0.107066 -0.87313,-0.0015 -1.19842,-0.05088 -0.72287,-0.109766 z m -4.7625,-0.264583 c 0.47555,-0.05889 1.18993,-0.05767 1.5875,0.0027 0.39758,0.06037 0.009,0.10855 -0.86463,0.107065 -0.87313,-0.0015 -1.19842,-0.05088 -0.72287,-0.109765 z m -5.55625,-0.264583 c 0.47555,-0.05889 1.18993,-0.05767 1.5875,0.0027 0.39758,0.06037 0.008,0.108551 -0.86463,0.107065 -0.87313,-0.0015 -1.19842,-0.05088 -0.72287,-0.109765 z m -5.56099,-0.259557 c 0.32743,-0.06306 0.86321,-0.06306 1.19063,0 0.32742,0.06306 0.0595,0.114662 -0.59531,0.114662 -0.65485,0 -0.92274,-0.0516 -0.59532,-0.114662 z m -7.93749,-0.273382 c -0.83675,-0.05251 -1.52136,-0.215797 -1.52136,-0.362868 0,-0.281327 3.03531,-0.09222 4.7625,0.296708 0.8607,0.193814 0.83269,0.206874 -0.39687,0.185077 -0.72761,-0.0129 -2.00753,-0.06641 -2.84427,-0.118917 z m 4.51445,0.01478 c 0.19099,-0.07643 0.4192,-0.06703 0.50712,0.02089 0.0879,0.08792 -0.0684,0.150453 -0.34727,0.138964 -0.30823,-0.01269 -0.37092,-0.07539 -0.15985,-0.159852 z m -8.61186,-0.538286 c 0.40218,-0.06082 0.9975,-0.05919 1.32292,0.0036 0.32542,0.0628 -0.004,0.11256 -0.73124,0.110573 -0.72761,-0.002 -0.99386,-0.05337 -0.59168,-0.114185 z m -4.36926,-0.261448 c 0.32742,-0.06306 0.8632,-0.06306 1.19062,0 0.32743,0.06306 0.0595,0.114663 -0.59531,0.114663 -0.65484,0 -0.92273,-0.0516 -0.59531,-0.114663 z m -3.83282,-0.267718 c 0.40218,-0.06082 0.99749,-0.05919 1.32292,0.0036 0.32542,0.0628 -0.004,0.11256 -0.73125,0.110574 -0.7276,-0.002 -0.99385,-0.05337 -0.59167,-0.114186 z m -3.70417,-0.264583 c 0.40218,-0.06082 0.9975,-0.05919 1.32292,0.0036 0.32542,0.0628 -0.004,0.11256 -0.73124,0.110573 -0.72761,-0.002 -0.99386,-0.05337 -0.59168,-0.114185 z m -5.09687,-0.339307 c 0,-0.307058 1.15788,-0.307058 2.11667,0 0.52043,0.166669 0.36529,0.21746 -0.7276,0.23821 -0.76724,0.01457 -1.38907,-0.09207 -1.38907,-0.23821 z m -3.53256,-0.277432 c 0.18676,-0.186762 0.70126,-0.196433 1.57427,-0.02959 l 1.29684,0.24784 -1.57427,0.02959 c -1.09812,0.02064 -1.49036,-0.05432 -1.29684,-0.24784 z m -1.82216,-0.17428 c 0.32912,-0.06329 0.80537,-0.06088 1.05833,0.0053 0.25297,0.06622 -0.0163,0.118003 -0.5984,0.115066 -0.58208,-0.0029 -0.78905,-0.05712 -0.45993,-0.120405 z m -2.9135,-0.252683 c 0.1819,-0.0734 0.47955,-0.0734 0.66145,0 0.18191,0.0734 0.0331,0.133452 -0.33072,0.133452 -0.36381,0 -0.51264,-0.06005 -0.33073,-0.133452 z m 7.87135,-0.08936 c -0.0899,-0.14552 0.0221,-0.264583 0.24897,-0.264583 0.22687,0 0.41249,0.119063 0.41249,0.264583 0,0.145521 -0.11204,0.264584 -0.24897,0.264584 -0.13693,0 -0.32255,-0.119063 -0.41249,-0.264584 z M 221.818,80.632205 c -1.08998,-0.126165 -2.10201,-0.279912 -2.24896,-0.341661 -0.57763,-0.242719 2.2354,-0.0957 4.36303,0.228034 2.65285,0.403647 1.10856,0.486649 -2.11407,0.113627 z"
           id="path4607"
           inkscape:connector-curvature="0" />
        <path
           style="fill:#000000;stroke-width:0.26458332"
           d="m 243.24659,244.78162 c -6.55067,-1.16759 -43.76919,-9.35425 -43.96468,-9.67057 -0.0999,-0.16159 -0.25254,-1.25352 -0.33926,-2.42653 -0.12211,-1.65152 -0.67113,-64.70895 -0.67454,-77.47283 l -6.9e-4,-2.57969 h 1.32292 1.32292 v 10.02177 c 0,8.10712 0.0685,10.07859 0.35838,10.3192 0.19712,0.16359 8.28836,1.48431 17.98054,2.93494 l 17.62215,2.63749 1.40019,-0.89991 c 0.77011,-0.49495 1.60513,-1.05695 1.85561,-1.24889 0.40598,-0.31109 0.48649,-1.38206 0.74169,-9.86602 0.15745,-5.23437 0.32306,-9.55381 0.368,-9.59876 0.21231,-0.21231 6.44064,0.58026 6.93561,0.88258 0.74744,0.4565 1.15441,-0.003 3.1373,-3.53909 0.83951,-1.49727 1.57793,-2.67077 1.64093,-2.60777 0.063,0.063 -0.0185,20.19308 -0.18116,44.73352 -0.16263,24.54044 -0.22134,44.85323 -0.13047,45.13954 0.19771,0.62294 -0.006,0.63434 -2.70184,0.15157 l -1.90535,-0.34115 -0.9443,0.96705 c -0.9618,0.98497 -1.00925,1.7126 -0.0566,0.86815 0.50878,-0.451 0.51421,-0.44687 0.19962,0.15224 -0.17786,0.33871 -0.47833,0.55637 -0.66772,0.48369 -0.18939,-0.0727 -0.47791,0.001 -0.64117,0.16469 -0.16325,0.16326 -0.29682,0.20484 -0.29682,0.0924 0,-0.11242 -0.31372,0.0424 -0.69714,0.34396 -0.38343,0.30161 -0.77038,0.53216 -0.8599,0.51234 -0.0895,-0.0198 -0.46041,-0.0891 -0.82421,-0.15393 z m 3.5719,-44.26484 c 0.20475,-42.45133 0.2064,-42.36486 -0.79573,-41.53316 -0.487,0.40417 -0.87447,82.10285 -0.39214,82.68402 0.98295,1.18439 0.98382,1.15438 1.18787,-41.15086 z m -1.19065,44.19022 c 0,-0.14552 0.11906,-0.26458 0.26458,-0.26458 0.14552,0 0.26458,0.11906 0.26458,0.26458 0,0.14552 -0.11906,0.26458 -0.26458,0.26458 -0.14552,0 -0.26458,-0.11906 -0.26458,-0.26458 z m 13.81857,-0.71811 c 0.40482,-0.0615 0.95663,-0.43959 1.25677,-0.86109 0.66493,-0.93381 0.69229,-1.29092 0.0547,-0.71391 -0.7239,0.65513 -1.93712,0.7983 -3.93559,0.46444 -3.4211,-0.57151 -3.30426,-0.52304 -3.1447,-1.30465 0.079,-0.38672 0.27181,-20.74427 0.42858,-45.23899 0.29562,-46.19297 0.30568,-45.57011 -0.72925,-45.17297 -0.20252,0.0777 -0.31821,0.0534 -0.25708,-0.0541 6.98717,-12.28498 32.01713,-55.22198 32.24679,-55.316941 0.11732,-0.04851 0.2133,-0.249839 0.2133,-0.447406 0,-0.197566 0.13554,-0.442981 0.3012,-0.545366 0.21337,-0.131865 0.25436,0.07578 0.14056,0.71199 -0.0883,0.493979 -0.2384,3.934237 -0.33344,7.645023 -0.17271,6.74318 -0.3729,9.15792 -0.3729,4.49791 0,-1.35819 -0.0608,-2.40868 -0.13503,-2.33442 -0.27869,0.27869 -1.46127,32.83805 -2.51128,69.14171 -0.29462,10.18646 -0.6515,21.08068 -0.79307,24.20938 -0.14157,3.1287 -0.3249,7.47448 -0.40741,9.65729 -0.20271,5.36276 -0.24191,5.56443 -1.15515,5.94271 -0.48485,0.20083 -0.93294,0.70919 -1.2503,1.41848 -0.27205,0.60801 -2.25357,3.76335 -4.40339,7.01187 -2.14981,3.24852 -3.78985,5.8329 -3.64452,5.74309 0.28305,-0.17494 4.52417,-6.21154 5.55596,-7.90808 0.54234,-0.89176 0.65379,-0.96251 0.87985,-0.55856 0.19124,0.34173 0.14976,0.5236 -0.1588,0.69628 -0.22971,0.12855 -1.11915,1.28248 -1.97653,2.56428 -0.85738,1.2818 -2.02407,2.94061 -2.59263,3.68623 -2.47843,3.25027 -5.39937,7.55905 -5.39937,7.9648 0,0.15152 -0.24821,0.40833 -0.55157,0.57068 -0.30336,0.16235 -0.7132,0.68204 -0.91075,1.15485 -0.19755,0.47281 -0.54335,1.0125 -0.76844,1.19931 -0.22508,0.1868 -0.34348,0.44606 -0.2631,0.57612 0.0804,0.13006 -0.045,0.30983 -0.27868,0.39949 -0.23366,0.0897 -1.2586,1.33898 -2.27766,2.77626 -1.71749,2.42237 -1.91475,2.61034 -2.70079,2.57359 -0.79164,-0.037 -0.80003,-0.0469 -0.12627,-0.1493 z m 7.52937,-9.68454 c 1.96657,-2.73827 3.51723,-5.03704 3.4459,-5.10837 -0.12958,-0.12958 -1.38952,1.57942 -5.38847,7.30894 -2.08333,2.98489 -2.94223,4.35576 -2.07215,3.30729 0.24152,-0.29104 2.04814,-2.76958 4.01472,-5.50786 z M 285.49056,99.384603 c -0.0734,-0.181901 -0.13345,-0.03307 -0.13345,0.330729 0,0.363798 0.0601,0.512628 0.13345,0.330728 0.0734,-0.1819 0.0734,-0.479556 0,-0.661457 z M 248.00909,242.32575 c 0,-0.14552 0.12609,-0.26458 0.2802,-0.26458 0.15411,0 0.20661,0.11906 0.11667,0.26458 -0.0899,0.14552 -0.21602,0.26458 -0.2802,0.26458 -0.0642,0 -0.11667,-0.11906 -0.11667,-0.26458 z m -35.32188,-3.175 c -0.0899,-0.14552 -0.0374,-0.26458 0.11668,-0.26458 0.15411,0 0.2802,0.11906 0.2802,0.26458 0,0.14552 -0.0525,0.26458 -0.11668,0.26458 -0.0642,0 -0.19026,-0.11906 -0.2802,-0.26458 z m -14.94895,-6.61458 c -0.23847,-0.15411 -0.2711,-0.2581 -0.0818,-0.26054 0.17332,-0.002 0.3887,0.11501 0.47864,0.26054 0.20302,0.32848 0.11142,0.32848 -0.39687,0 z m -3.3073,-1.67793 -2.38125,-0.58142 -0.0741,-3.37861 -0.0741,-3.37861 0.83373,-0.70154 0.83374,-0.70154 -0.17807,-5.83653 c -0.38898,-12.74987 -1.86555,-49.668 -2.44222,-61.06196 l -0.175,-3.4578 1.69637,0.17625 c 0.933,0.0969 2.30717,0.24548 3.05371,0.33011 l 1.35734,0.15387 0.1649,20.01566 c 0.0907,11.00862 0.23861,28.79653 0.32871,39.52869 0.13809,16.44748 0.10677,19.51002 -0.19932,19.49393 -0.19972,-0.0105 -1.4347,-0.28073 -2.74439,-0.6005 z m -2.91041,-8.11166 c 0.26339,-0.29104 0.53842,-0.52916 0.61118,-0.52916 0.0728,0 -0.0832,0.23812 -0.3466,0.52916 -0.26339,0.29104 -0.53842,0.52917 -0.61118,0.52917 -0.0728,0 0.0832,-0.23813 0.3466,-0.52917 z m 87.3125,-4.7625 c -0.0899,-0.14552 -0.0445,-0.26458 0.10106,-0.26458 0.14552,0 0.33816,0.11906 0.4281,0.26458 0.0899,0.14552 0.0445,0.26459 -0.10106,0.26459 -0.14552,0 -0.33817,-0.11907 -0.4281,-0.26459 z m -59.79584,-42.91176 c -9.45885,-1.41869 -17.22768,-2.58328 -17.26406,-2.588 -0.0364,-0.005 -0.0661,-4.41388 -0.0661,-9.79815 0,-6.97812 0.0841,-9.78959 0.29275,-9.78959 1.44354,0 34.10864,3.35696 34.27399,3.5223 0.0549,0.0549 0.0686,4.8547 0.0306,10.66631 l -0.0692,10.56656 z m 3.10338,-5.08178 c 0.91252,-0.49374 1.66478,-0.99975 1.6717,-1.12448 0.007,-0.12472 0.26314,-0.62603 0.56937,-1.11401 0.73347,-1.16877 0.94808,-2.75062 0.61277,-4.51672 -0.55881,-2.94337 -3.18607,-6.04958 -5.74628,-6.79385 -1.71099,-0.4974 -3.99289,-0.37525 -4.97177,0.26614 -1.51578,0.99318 -2.44247,6.02788 -1.59194,8.64902 1.13305,3.4918 2.40833,4.83126 5.02986,5.283 2.07774,0.35804 2.74606,0.26003 4.42629,-0.6491 z m -4.34195,-0.56564 c -0.68122,-0.35473 -1.31452,-0.76785 -1.40735,-0.91804 -0.0928,-0.15019 -0.30937,-0.19252 -0.48121,-0.094 -0.17185,0.0985 -0.22705,0.0845 -0.12268,-0.0311 0.10438,-0.11557 -0.0375,-0.49912 -0.31537,-0.85232 -0.49062,-0.62372 -0.75597,-1.65274 -1.29035,-5.00387 -0.21411,-1.34264 -0.17555,-1.86484 0.22804,-3.0882 0.84389,-2.55798 0.85951,-2.57273 2.71857,-2.56616 2.0435,0.007 3.38949,0.60118 4.86328,2.14605 1.56742,1.64303 2.29977,3.20865 2.42565,5.18563 0.18143,2.84925 -0.67839,4.29245 -2.57674,4.32507 -1.15195,0.0198 -1.17643,0.0352 -0.46637,0.29389 l 0.7494,0.27301 -0.82194,0.49986 c -1.08298,0.6586 -1.99726,0.61429 -3.50293,-0.16975 z m -1.01038,-2.35749 c 0,-0.0642 -0.11907,-0.19027 -0.26459,-0.2802 -0.14552,-0.0899 -0.26458,-0.0374 -0.26458,0.11667 0,0.15411 0.11906,0.2802 0.26458,0.2802 0.14552,0 0.26459,-0.0525 0.26459,-0.11667 z m 20.37291,-0.30851 c 0,-9.44709 0.0412,-10.46353 0.41852,-10.31875 0.23018,0.0883 0.95602,0.1606 1.61297,0.1606 h 1.19445 l -0.20674,5.4901 c -0.11371,3.01956 -0.2172,6.26401 -0.22998,7.2099 -0.0128,0.94588 -0.0503,2.8161 -0.0833,4.15603 l -0.0601,2.43624 -1.14772,0.67262 c -0.63125,0.36993 -1.22656,0.67261 -1.32292,0.67261 -0.0964,0 -0.17519,-4.71571 -0.17519,-10.47935 z m -20.37291,-13.75568 c -16.66214,-1.65188 -30.50525,-2.95755 -30.76247,-2.9015 -0.67323,0.14672 -1.10098,-0.39451 -1.62271,-2.05321 -0.2524,-0.80247 -0.62527,-1.52287 -0.8286,-1.6009 -0.20333,-0.078 -1.26738,-0.2232 -2.36457,-0.32263 l -1.99488,-0.18077 -1.35952,1.35952 c -0.74773,0.74774 -1.49133,1.3568 -1.65245,1.35348 -0.16111,-0.003 -1.12428,-0.21875 -2.14037,-0.47871 -2.10601,-0.53882 -2.00701,-0.34407 -2.34864,-4.62002 l -0.16475,-2.06206 0.8575,0.1336 c 4.67137,0.72783 10.54601,1.52718 13.68979,1.86272 7.49005,0.79945 60.72835,7.59008 61.11875,7.7958 0.268,0.14122 0.48683,0.95175 0.67389,2.49609 0.26926,2.22286 0.26185,2.28604 -0.26458,2.25448 -0.29788,-0.0179 -14.17426,-1.38401 -30.83639,-3.03589 z m 23.94479,0.68711 c -0.0899,-0.14552 -0.28259,-0.26458 -0.42811,-0.26458 -0.14552,0 -0.191,0.11906 -0.10106,0.26458 0.0899,0.14552 0.28258,0.26459 0.4281,0.26459 0.14552,0 0.191,-0.11907 0.10107,-0.26459 z m 8.59895,1.1445 c 0,-0.14663 -0.13092,-1.23949 -0.29095,-2.42857 l -0.29096,-2.16197 5.61631,-9.98479 c 3.08897,-5.49164 5.76206,-10.16339 5.9402,-10.38167 0.17814,-0.21828 0.95277,-1.5875 1.72141,-3.04271 1.47465,-2.79188 4.64556,-8.47789 5.80085,-10.40198 0.37699,-0.62786 0.99306,-1.69942 1.36904,-2.38125 5.80459,-10.52633 6.70455,-12.10522 7.15892,-12.55958 0.23016,-0.23017 0.93069,-1.46829 1.55673,-2.751381 1.42929,-2.929422 6.31871,-11.679078 6.63599,-11.875166 0.13486,-0.08334 0.23663,1.462262 0.23663,3.593521 v 3.739764 l -1.02137,1.765955 c -4.27903,7.398457 -34.26176,58.939397 -34.3371,59.026197 -0.0526,0.0606 -0.0957,-0.01 -0.0957,-0.15637 z m -12.03854,-6.32128 c -5.38427,-0.63371 -22.39538,-2.76207 -37.80248,-4.72968 -15.40709,-1.96761 -28.14005,-3.49888 -28.29546,-3.40283 -0.29852,0.18449 3.32913,-4.61699 10.95123,-14.49482 5.21556,-6.75908 14.17979,-18.43764 18.8615,-24.57269 1.72574,-2.261459 5.82615,-7.785291 9.11203,-12.275187 3.28588,-4.489897 6.14048,-8.227208 6.34356,-8.305136 0.20308,-0.07793 1.6986,-0.0049 3.32339,0.162291 14.98076,1.541508 35.37349,2.992111 55.00888,3.912966 5.84962,0.274334 9.82013,0.561136 9.58558,0.692397 -0.22022,0.123242 -0.31997,0.354218 -0.22166,0.513279 0.10021,0.162146 0.0577,0.214402 -0.0967,0.118944 -0.15152,-0.09364 -0.42685,0.01212 -0.61184,0.235027 -0.185,0.222907 -8.28069,14.538859 -17.99042,31.813229 -9.70973,17.27437 -17.81694,31.42516 -18.01602,31.44619 -0.19907,0.021 -4.76727,-0.48026 -10.15154,-1.11398 z m -59.13437,0.16531 c 0,-0.13693 0.1177,-0.32171 0.26155,-0.41061 0.14998,-0.0927 0.19434,0.0135 0.10399,0.24896 -0.1759,0.45837 -0.36554,0.54224 -0.36554,0.16165 z m -7.40833,-9.22991 c 0,-0.12015 0.31651,-0.5071 0.70335,-0.85989 l 0.70336,-0.64144 -0.62082,0.8599 c -0.64577,0.89444 -0.78589,1.00881 -0.78589,0.64143 z m 3.175,-4.11476 c 0,-0.0549 0.20836,-0.2633 0.46302,-0.46302 0.41964,-0.32911 0.429,-0.31975 0.0999,0.0999 -0.34564,0.44073 -0.56291,0.58089 -0.56291,0.36313 z m 7.29305,-9.50267 c 0.0994,-0.26093 0.2473,-0.40778 0.32876,-0.32631 0.0815,0.0815 1.7e-4,0.29495 -0.18065,0.47443 -0.26131,0.25936 -0.2917,0.22897 -0.14811,-0.14812 z m 1.96736,-2.56827 c 0.15576,-0.29104 0.34274,-0.52917 0.4155,-0.52917 0.0728,0 0.005,0.23813 -0.15091,0.52917 -0.15576,0.29104 -0.34274,0.52917 -0.4155,0.52917 -0.0728,0 -0.005,-0.23813 0.15091,-0.52917 z m 3.04271,-4.23333 c 0.0899,-0.14553 0.21603,-0.26459 0.2802,-0.26459 0.0642,0 0.11668,0.11906 0.11668,0.26459 0,0.14552 -0.12609,0.26458 -0.2802,0.26458 -0.15411,0 -0.20662,-0.11906 -0.11668,-0.26458 z m 3.30729,-4.20211 c 0,-0.14552 0.11907,-0.33817 0.26459,-0.4281 0.14552,-0.0899 0.26458,-0.0445 0.26458,0.10106 0,0.14552 -0.11906,0.33817 -0.26458,0.4281 -0.14552,0.0899 -0.26459,0.0445 -0.26459,-0.10106 z m 0.79375,-1.04155 c 0,-0.31976 0.50197,-0.69257 0.68546,-0.50908 0.0666,0.0666 -0.0604,0.27169 -0.28219,0.45576 -0.25145,0.20869 -0.40327,0.22877 -0.40327,0.0533 z m 1.20764,-1.44849 c 0.0994,-0.26093 0.2473,-0.40778 0.32876,-0.32631 0.0815,0.0815 1.7e-4,0.29495 -0.18065,0.47443 -0.26131,0.25936 -0.2917,0.22897 -0.14811,-0.14812 z m 5.29166,-6.87916 c 0.0994,-0.26094 0.24731,-0.40778 0.32877,-0.32632 0.0815,0.0815 1.7e-4,0.29496 -0.18065,0.47443 -0.26131,0.25936 -0.2917,0.22897 -0.14812,-0.14811 z m 1.3572,-2.20831 c -0.21138,-0.21138 0.0276,-0.62455 0.3612,-0.62455 0.13693,0 0.24897,0.17859 0.24897,0.39687 0,0.40916 -0.3122,0.52565 -0.61017,0.22768 z m 1.93309,-2.14726 c 0,-0.14552 0.17859,-0.4128 0.39687,-0.59396 0.22139,-0.18373 0.39688,-0.21238 0.39688,-0.0648 0,0.14552 -0.1786,0.4128 -0.39688,0.59396 -0.22139,0.18373 -0.39687,0.21238 -0.39687,0.0648 z m 6.35,-8.531458 c 0,-0.145521 0.12609,-0.264583 0.28019,-0.264583 0.15411,0 0.20662,0.119062 0.11668,0.264583 -0.0899,0.145521 -0.21603,0.264583 -0.2802,0.264583 -0.0642,0 -0.11667,-0.119062 -0.11667,-0.264583 z m 2.38125,-3.175 c 0,-0.145521 0.12609,-0.264583 0.28019,-0.264583 0.15411,0 0.20662,0.119062 0.11668,0.264583 -0.0899,0.145521 -0.21603,0.264583 -0.2802,0.264583 -0.0642,0 -0.11667,-0.119062 -0.11667,-0.264583 z m 1.85208,-2.597822 c 0,-0.319763 0.50197,-0.692572 0.68545,-0.509084 0.0666,0.0666 -0.0604,0.27169 -0.28218,0.455766 -0.25146,0.20869 -0.40327,0.228762 -0.40327,0.05332 z m 0.79906,-1.24503 c 0.18407,-0.221798 0.38917,-0.348782 0.45576,-0.282187 0.18349,0.183488 -0.18932,0.685456 -0.50908,0.685456 -0.17545,0 -0.15537,-0.151813 0.0533,-0.403269 z m 46.23062,-2.417793 c 0.18191,-0.0734 0.47956,-0.0734 0.66146,0 0.1819,0.0734 0.0331,0.133452 -0.33073,0.133452 -0.3638,0 -0.51263,-0.06005 -0.33073,-0.133452 z m -44.11926,-0.455 c 0,-0.218281 0.11906,-0.47046 0.26458,-0.560397 0.14552,-0.08994 0.26458,0.01507 0.26458,0.233354 0,0.218281 -0.11906,0.470459 -0.26458,0.560396 -0.14552,0.08994 -0.26458,-0.01507 -0.26458,-0.233353 z m 1.05833,-1.190625 c 0,-0.145521 0.11906,-0.338168 0.26458,-0.428105 0.14552,-0.08994 0.26459,-0.04446 0.26459,0.101062 0,0.145521 -0.11907,0.338168 -0.26459,0.428105 -0.14552,0.08994 -0.26458,0.04446 -0.26458,-0.101062 z"
           id="path4605"
           inkscape:connector-curvature="0" />
      </g>
      <g
         id="g4641"
         transform="rotate(34.741627,47.551575,141.21182)">
        <path
           style="fill:#010101;stroke-width:0.26458332"
           d="m 76.405208,127.49216 c 2.611925,-0.84491 4.779057,-1.61597 4.815844,-1.71346 0.03676,-0.0975 -0.291982,-1.52284 -0.730606,-3.16743 -2.304421,-8.64036 -2.72812,-17.15636 -1.314954,-26.429474 0.539576,-3.540682 2.955091,-11.561149 4.513176,-14.985542 7.246566,-15.926671 19.960732,-27.703574 36.369392,-33.688321 10.17212,-3.710095 21.9635,-4.585628 33.28089,-2.471174 4.31365,0.805934 11.19102,3.134718 15.44148,5.228738 3.32296,1.637074 6.43643,3.440612 6.69193,3.876426 0.0713,0.121617 -5.50649,3.056058 -12.39509,6.520969 l -12.52474,6.299841 2.30823,4.598443 2.30823,4.598447 18.63674,-9.375846 18.63674,-9.375844 -9.37419,-18.633448 -9.3742,-18.633453 -4.59742,2.307718 -4.59741,2.307717 3.9017,7.760973 c 2.14593,4.268536 3.83615,7.786908 3.75603,7.818603 -0.08,0.03171 -1.24197,-0.419359 -2.58189,-1.002411 -3.5944,-1.563973 -11.68501,-3.925431 -15.88397,-4.636147 -27.60474,-4.672407 -54.860753,6.267021 -71.366951,28.643726 -9.424423,12.776263 -14.374157,28.295902 -14.156635,44.387399 0.08121,6.00706 1.390891,14.56365 3.039289,19.85661 l 0.449436,1.44313 z"
           id="path4643"
           inkscape:connector-curvature="0" />
      </g>
    </g>
  </g>
</svg>
