<?xml version="1.0" encoding="UTF-8" standalone="no"?>
<!-- Created with Inkscape (http://www.inkscape.org/) -->

<svg
   xmlns:dc="http://purl.org/dc/elements/1.1/"
   xmlns:cc="http://creativecommons.org/ns#"
   xmlns:rdf="http://www.w3.org/1999/02/22-rdf-syntax-ns#"
   xmlns:svg="http://www.w3.org/2000/svg"
   xmlns="http://www.w3.org/2000/svg"
   xmlns:sodipodi="http://sodipodi.sourceforge.net/DTD/sodipodi-0.dtd"
   xmlns:inkscape="http://www.inkscape.org/namespaces/inkscape"
   width="169.33389mm"
   height="128.74252mm"
   viewBox="0 0 169.33389 128.74252"
   version="1.1"
   id="svg8"
   inkscape:export-filename="/home/olivier/Documents/abripiaf.github.io/logo.png"
   inkscape:export-xdpi="96"
   inkscape:export-ydpi="96"
   inkscape:version="0.92.3 (2405546, 2018-03-11)"
   sodipodi:docname="logo.svg">
  <defs
     id="defs2" />
  <sodipodi:namedview
     id="base"
     pagecolor="#ffffff"
     bordercolor="#666666"
     borderopacity="1.0"
     inkscape:pageopacity="0.0"
     inkscape:pageshadow="2"
     inkscape:zoom="0.175"
     inkscape:cx="-409.39255"
     inkscape:cy="523.10156"
     inkscape:document-units="mm"
     inkscape:current-layer="layer1"
     showgrid="false"
     fit-margin-top="0"
     fit-margin-left="0"
     fit-margin-right="0"
     fit-margin-bottom="0"
     inkscape:window-width="1366"
     inkscape:window-height="708"
     inkscape:window-x="0"
     inkscape:window-y="0"
     inkscape:window-maximized="1" />
  <metadata
     id="metadata5">
    <rdf:RDF>
      <cc:Work
         rdf:about="">
        <dc:format>image/svg+xml</dc:format>
        <dc:type
           rdf:resource="http://purl.org/dc/dcmitype/StillImage" />
        <dc:title></dc:title>
      </cc:Work>
    </rdf:RDF>
  </metadata>
  <g
     inkscape:label="Calque 1"
     inkscape:groupmode="layer"
     id="layer1"
     transform="translate(-9.6005189,-56.865164)">
    <path
       id="path837"
       style="fill:#010101;stroke-width:0.26458335"
       d="m 78.253548,102.99511 c -5.664576,-0.0114 -10.497156,2.56292 -14.494205,7.7215 -0.937443,1.20986 -1.920164,2.57291 -2.183332,3.02875 -0.466312,0.80772 -0.539702,0.83291 -2.887162,1.00304 -5.352486,0.3879 -12.20434,0.99996 -12.305191,1.09916 -0.109561,0.10775 1.419937,1.89418 5.646168,6.59391 1.308595,1.4552 2.652737,2.95109 2.986898,3.32435 0.531711,0.59392 0.640476,1.11513 0.873331,4.17493 0.698952,9.1845 3.787992,18.07179 8.657352,24.90753 2.164524,3.03862 6.608852,7.52277 9.514149,9.59993 4.319823,3.08848 10.137214,6.00631 14.660602,7.35355 4.478094,2.11399 9.302311,1.97829 13.926282,1.15965 1.97145,-0.34136 7.12603,-1.70263 9.32656,-2.4629 7.19782,-2.48675 14.0499,-6.3165 21.16667,-11.83028 4.03322,-3.12477 12.67458,-11.77235 16.2388,-16.25069 3.67029,-4.61162 10.20206,-14.2875 9.64489,-14.2875 -0.0528,0 -1.47557,0.40564 -3.16156,0.90175 -4.14419,1.21947 -7.35232,1.59003 -12.10831,1.39734 -7.61955,-0.30871 -14.43687,-2.36831 -23.71069,-7.16287 -4.05799,-2.09797 -6.72342,-3.65624 -19.05001,-11.13783 -8.600485,-5.22003 -15.008167,-8.13056 -19.508888,-8.86095 -1.106022,-0.17949 -2.183366,-0.27022 -3.232359,-0.27234 z m -2.511475,7.41867 c 1.297506,0.0335 2.583873,0.65706 3.354316,2.00091 1.120881,1.9551 0.520874,4.21747 -1.412317,5.32578 -2.797125,1.60362 -6.190318,-0.24279 -6.190318,-3.36879 0,-2.4042 1.967285,-3.8873 3.988903,-3.95687 0.08645,-0.003 0.172916,-0.003 0.259416,-0.001 z m 25.294057,67.04604 c 0.007,0.004 0.013,0.008 0.0196,0.0114 0.0303,0.003 0.0707,-1.3e-4 0.0517,-0.006 -0.023,-0.006 -0.0472,-0.006 -0.0713,-0.006 z m -0.17363,8.08116 v 0.0667 c 0.0409,-0.006 0.082,-0.0111 0.12299,-0.0171 -0.0413,-0.0163 -0.0823,-0.0323 -0.12299,-0.0496 z"
       inkscape:connector-curvature="0"
       sodipodi:nodetypes="cscccccssccccssscsccscccccsccccccccccccc" />
    <path
       style="fill:none;stroke:#000000;stroke-width:14.79047203;stroke-linecap:round;stroke-linejoin:round;stroke-miterlimit:4;stroke-dasharray:none;stroke-opacity:1"
       d="M 17.080685,121.21265 94.267463,64.323191"
       id="path839"
       inkscape:connector-curvature="0" />
    <path
       style="fill:none;stroke:#000000;stroke-width:14.79047203;stroke-linecap:round;stroke-linejoin:round;stroke-miterlimit:4;stroke-dasharray:none;stroke-opacity:1"
       d="M 171.45424,121.21266 94.267463,64.323191"
       id="path839-6"
       inkscape:connector-curvature="0" />
  </g>
</svg>
