<?xml version="1.0" encoding="UTF-8" standalone="no"?>
<!-- Created with Inkscape (http://www.inkscape.org/) -->

<svg
   xmlns:dc="http://purl.org/dc/elements/1.1/"
   xmlns:cc="http://creativecommons.org/ns#"
   xmlns:rdf="http://www.w3.org/1999/02/22-rdf-syntax-ns#"
   xmlns:svg="http://www.w3.org/2000/svg"
   xmlns="http://www.w3.org/2000/svg"
   xmlns:sodipodi="http://sodipodi.sourceforge.net/DTD/sodipodi-0.dtd"
   xmlns:inkscape="http://www.inkscape.org/namespaces/inkscape"
   width="200mm"
   height="120mm"
   viewBox="0 0 200 120"
   version="1.1"
   id="svg8"
   inkscape:version="0.92.4 (5da689c313, 2019-01-14)"
   sodipodi:docname="tampon.svg"
   inkscape:export-filename="/media/sf_tmp/abripiaf.png"
   inkscape:export-xdpi="96"
   inkscape:export-ydpi="96">
  <defs
     id="defs2" />
  <sodipodi:namedview
     id="base"
     pagecolor="#ffffff"
     bordercolor="#666666"
     borderopacity="1.0"
     inkscape:pageopacity="0.0"
     inkscape:pageshadow="2"
     inkscape:zoom="0.7"
     inkscape:cx="565.98055"
     inkscape:cy="190.1797"
     inkscape:document-units="mm"
     inkscape:current-layer="layer1"
     showgrid="false"
     inkscape:window-width="1680"
     inkscape:window-height="798"
     inkscape:window-x="-3"
     inkscape:window-y="31"
     inkscape:window-maximized="0" />
  <metadata
     id="metadata5">
    <rdf:RDF>
      <cc:Work
         rdf:about="">
        <dc:format>image/svg+xml</dc:format>
        <dc:type
           rdf:resource="http://purl.org/dc/dcmitype/StillImage" />
        <dc:title></dc:title>
      </cc:Work>
    </rdf:RDF>
  </metadata>
  <g
     inkscape:label="Calque 1"
     inkscape:groupmode="layer"
     id="layer1"
     transform="translate(0,-177)">
    <text
       xml:space="preserve"
       style="font-style:normal;font-variant:normal;font-weight:normal;font-stretch:normal;font-size:8.61604881px;line-height:1.25;font-family:'Droid Sans Fallback';-inkscape-font-specification:'Droid Sans Fallback';letter-spacing:0px;word-spacing:0px;fill:#000000;fill-opacity:1;stroke:none;stroke-width:0.2154012"
       x="3.4716673"
       y="222.47214"
       id="text4520"
       transform="scale(0.8709962,1.1481106)"><tspan
         sodipodi:role="line"
         id="tspan4518"
         x="3.4716673"
         y="230.12013"
         style="font-style:normal;font-variant:normal;font-weight:normal;font-stretch:normal;font-size:41.35703278px;font-family:'Cold Warm';-inkscape-font-specification:'Cold Warm';stroke-width:0.2154012" /></text>
    <path
       style="fill:#040404;stroke-width:0.45412549"
       d="m 76.207652,249.2052 v -30.48049 h 10.219993 10.219989 v 21.12246 21.12244 h -6.749048 -6.749053 v 9.35805 9.35803 h -3.470941 -3.47094 z m 13.498106,-9.35803 v -12.03178 h -3.278113 -3.278112 v 12.03178 12.03176 h 3.278112 3.278113 z M 1.7752666,246.79885 V 232.6281 h 6.7490537 6.7490527 v -2.40635 -2.40636 H 8.5243203 1.7752666 v -4.54534 -4.54534 H 11.99526 22.215255 v 21.12246 21.12244 H 11.99526 1.7752666 Z m 13.4981064,0 v -5.08007 H 11.99526 8.7171473 v 5.08007 5.08008 h 3.2781127 3.278113 z m 10.027152,-16.04236 v -30.21312 h 3.470941 3.47094 v 9.09068 9.09066 h 6.749053 6.749054 v 21.12246 21.12244 H 35.520519 25.300525 Z m 13.498107,9.09068 v -12.03178 h -3.278113 -3.278113 v 12.03178 12.03176 h 3.278113 3.278113 z m 10.412821,0 v -21.12246 h 6.941881 6.941881 v 4.54534 4.54534 h -3.470941 -3.47094 v 16.5771 16.57712 h -3.47094 -3.470941 z m 16.969047,0 v -21.12246 h 3.470941 3.47094 v 21.12246 21.12244 H 69.651441 66.1805 Z m 33.93808,0 v -21.12246 h 3.47094 3.47094 v 21.12246 21.12244 h -3.47094 -3.47094 z m 10.41282,6.95168 V 232.6281 h 6.77122 6.77122 l -0.11865,-2.27267 -0.11865,-2.27267 -6.65263,-0.14633 -6.65263,-0.14633 v -4.5327 -4.53271 h 10.02717 10.02715 v 21.12246 21.12244 h -10.02715 -10.02717 z m 13.30526,0 v -4.81271 h -3.2781 -3.27811 l -0.11369,4.2307 c -0.0625,2.32688 -0.0219,4.56256 0.0904,4.96815 0.15572,0.56269 0.95954,0.70063 3.39186,0.58201 l 3.18777,-0.15542 z m 13.98575,-2.27267 -0.10203,-16.44342 -1.63904,-0.16452 -1.63906,-0.16452 v -4.51457 -4.5146 h 1.73546 1.73548 v -9.09066 -9.09068 h 6.76464 6.76464 l -0.11194,4.41164 -0.11209,4.41167 -3.37452,0.15441 -3.37453,0.15461 v 4.52453 4.5245 h 3.47094 3.47093 v 4.52452 4.52452 l -3.37451,0.15441 -3.37453,0.15462 -0.10204,16.44342 -0.10203,16.44343 h -3.26698 -3.26696 z m 16.67423,11.89809 v -4.54534 h 3.47094 3.47094 v 4.54534 4.54534 h -3.47094 -3.47094 z m 13.88376,-12.03178 v -16.5771 h -1.54264 -1.54265 v -4.54534 -4.54534 h 1.54265 1.54264 v -9.09066 -9.09068 h 6.74905 6.74906 v 4.54534 4.54534 h -3.27812 -3.27811 v 4.54534 4.54532 h 3.27811 3.27812 v 4.52371 4.52372 l -3.18171,0.15542 -3.18169,0.15522 -0.10203,16.44342 -0.10204,16.44343 h -3.46536 -3.46537 z m 16.96905,-4.54532 v -21.12246 h 6.74904 6.74905 v 4.52452 4.52452 l -3.37452,0.15441 -3.37453,0.15462 -0.10204,16.44342 -0.10203,16.44343 h -3.27254 -3.27253 z M 66.1805,209.36668 v -4.54534 h 3.470941 3.47094 v 4.54534 4.54532 H 69.651441 66.1805 Z m 33.93808,0 v -4.54534 h 3.47094 3.47094 v 4.54534 4.54532 h -3.47094 -3.47094 z"
       id="path4584"
       inkscape:connector-curvature="0" />
  </g>
</svg>
